<?xml version="1.0" standalone="no"?>
<!DOCTYPE svg PUBLIC "-//W3C//DTD SVG 20010904//EN"
 "http://www.w3.org/TR/2001/REC-SVG-20010904/DTD/svg10.dtd">
<svg version="1.0" xmlns="http://www.w3.org/2000/svg"
 width="700.000000pt" height="700.000000pt" viewBox="0 0 700.000000 700.000000"
 preserveAspectRatio="xMidYMid meet">
<metadata>
Created by potrace 1.11, written by Peter Selinger 2001-2013
</metadata>
<g transform="translate(0.000000,700.000000) scale(0.100000,-0.100000)"
fill="#000000" stroke="none">
<path d="M2893 6987 c-17 -7 -35 -15 -39 -19 -4 -5 -14 -8 -22 -8 -41 0 -230
-162 -328 -281 -27 -32 -52 -59 -56 -59 -3 0 -26 18 -50 40 -23 22 -48 40 -55
40 -6 0 -13 4 -15 9 -1 5 -25 22 -51 39 -42 26 -55 30 -105 26 -31 -2 -68 -7
-82 -9 -43 -9 -130 -47 -130 -56 0 -5 -6 -9 -13 -9 -11 0 -54 -38 -112 -101
-11 -11 -19 -25 -18 -30 2 -5 0 -9 -5 -9 -4 0 -16 -17 -26 -37 -10 -21 -27
-55 -38 -75 -11 -21 -17 -38 -15 -38 3 0 -5 -33 -17 -72 -18 -58 -22 -93 -20
-173 5 -186 61 -317 182 -429 52 -48 111 -127 117 -156 2 -12 5 -78 6 -146 l1
-125 -63 -65 c-91 -94 -89 -92 -89 -103 0 -6 -4 -11 -8 -11 -12 0 -71 -86 -78
-115 -3 -14 -10 -25 -15 -25 -5 0 -8 -3 -8 -7 1 -5 1 -10 -1 -13 -1 -3 -3 -15
-6 -27 -3 -20 -1 -21 20 -13 36 13 196 4 212 -13 4 -4 13 -7 20 -7 23 0 102
-60 148 -112 24 -28 66 -93 92 -144 26 -52 50 -94 53 -94 4 0 12 -12 18 -27
40 -89 318 -374 515 -526 106 -82 127 -97 136 -97 5 0 15 -7 22 -15 14 -16
123 -81 129 -76 2 1 7 -2 10 -8 9 -13 98 -51 122 -51 10 0 19 -5 19 -11 0 -5
4 -8 9 -5 5 4 11 2 13 -3 1 -6 26 -13 53 -16 28 -4 57 -8 65 -10 31 -8 189
-18 319 -19 118 -2 135 -4 147 -21 8 -10 14 -27 14 -36 0 -21 -54 -64 -91 -73
-38 -8 -73 -40 -67 -58 11 -27 74 -50 173 -64 11 -1 20 -3 20 -4 0 -1 11 -3
25 -5 14 -1 52 -5 85 -9 47 -5 65 -12 83 -33 32 -35 23 -70 -30 -120 -47 -45
35 -22 87 24 84 74 72 152 -28 192 -74 29 -197 46 -197 28 0 -7 -4 -7 -12 1
-9 9 -5 17 15 35 15 12 27 27 27 32 0 4 8 17 17 27 25 28 24 87 -1 116 -45 52
-65 56 -296 58 -118 1 -226 5 -240 7 -23 5 -38 8 -95 21 -68 16 -195 72 -195
87 0 5 -6 9 -14 9 -15 0 -23 18 -32 67 -3 15 -8 31 -12 37 -3 6 -7 16 -7 21
-1 6 -4 17 -7 25 -9 23 -47 162 -50 185 -2 11 -6 22 -10 25 -3 3 -9 24 -13 48
-3 23 -12 60 -20 82 -8 22 -19 66 -25 98 -5 31 -13 68 -16 82 -18 83 -23 161
-11 178 5 6 6 12 3 12 -4 0 1 14 11 30 16 29 28 36 70 45 10 2 38 8 63 14 25
5 68 13 95 16 59 8 78 10 165 25 36 5 83 12 105 14 22 3 40 5 40 6 0 3 80 15
165 25 56 7 113 15 137 19 53 11 136 19 313 32 137 11 176 -6 219 -92 13 -25
24 -53 26 -62 2 -9 4 -18 5 -19 2 -2 3 -6 5 -10 1 -5 5 -15 8 -23 7 -17 34
-133 47 -200 5 -25 11 -56 14 -70 3 -14 8 -36 11 -49 8 -41 55 -225 62 -241 3
-8 7 -19 9 -25 12 -49 46 -170 49 -175 2 -3 6 -25 10 -50 4 -24 10 -51 15 -60
4 -8 11 -37 15 -65 18 -128 20 -176 9 -213 l-11 -39 86 30 c47 17 88 33 91 37
3 3 10 6 15 7 19 4 140 48 145 53 3 3 10 6 15 7 23 5 200 75 205 81 3 4 12 8
20 10 24 4 225 96 228 104 2 5 12 8 22 8 9 0 23 7 30 15 7 8 18 15 24 15 31 0
77 62 66 90 -3 8 -8 42 -13 90 -3 25 -13 86 -22 135 -9 50 -18 101 -20 115 -2
14 -11 52 -19 85 -8 33 -17 74 -20 90 -8 48 -43 200 -46 200 -1 0 -3 7 -5 15
-47 212 -132 428 -200 508 -40 46 -39 45 -145 27 -14 -2 -50 -7 -80 -10 -59
-6 -145 -21 -145 -25 0 -1 -17 -3 -39 -5 -34 -3 -122 -16 -136 -20 -9 -3 -94
-15 -130 -20 -19 -2 -35 -4 -35 -5 0 -1 -11 -3 -25 -5 -14 -1 -38 -6 -55 -10
-33 -7 -48 -10 -115 -20 -25 -3 -61 -10 -80 -15 -19 -5 -51 -11 -70 -14 -19
-2 -46 -7 -60 -10 -14 -4 -38 -9 -54 -12 -16 -2 -33 -7 -36 -9 -4 -3 -25 -7
-46 -11 -73 -11 -216 -45 -236 -55 -16 -8 -19 -8 -13 1 6 9 3 9 -11 2 -11 -5
-59 -20 -109 -32 -49 -12 -134 -38 -188 -56 -55 -19 -102 -34 -106 -34 -4 0
-15 14 -25 31 -24 41 -184 201 -224 225 -18 10 -32 22 -32 26 0 4 -4 8 -10 8
-5 0 -31 13 -57 28 -57 33 -169 79 -209 86 -16 2 -29 5 -29 6 0 1 -11 3 -25 5
-63 8 -101 15 -110 20 -19 12 -11 73 12 95 12 11 25 20 30 20 4 0 8 4 8 9 0 6
-10 7 -22 4 -13 -2 -61 -6 -108 -8 -87 -2 -150 8 -150 25 0 6 -9 10 -19 10
-10 0 -21 7 -25 15 -3 8 -10 15 -16 15 -36 0 -137 161 -127 201 4 16 0 19 -36
20 -63 1 -77 5 -116 37 -47 38 -71 90 -78 168 -5 62 -4 64 22 74 14 5 33 10
41 10 19 0 124 -107 124 -126 0 -21 44 -17 64 5 17 19 17 22 0 67 -38 100 -16
219 54 287 41 40 105 77 134 77 10 0 18 5 18 11 0 5 4 8 9 4 5 -3 12 -1 16 5
4 6 11 8 16 5 5 -4 9 -2 9 3 0 5 6 9 13 10 6 0 42 4 78 8 41 4 73 3 85 -4 23
-12 43 -68 40 -112 -2 -33 1 -35 41 -18 15 6 33 12 40 14 7 1 26 12 42 23 16
12 32 21 35 21 30 0 226 180 226 208 0 6 3 12 8 12 4 0 14 17 24 38 18 40 31
77 27 77 -1 0 3 11 11 24 7 14 14 64 16 113 3 85 2 89 -24 113 -46 43 -124 56
-189 32z"/>
<path d="M1700 4464 c0 -6 6 -27 14 -45 17 -43 25 -67 26 -77 1 -4 9 -15 17
-24 9 -10 13 -18 10 -18 -6 0 71 -141 96 -174 4 -6 32 -49 62 -94 31 -46 61
-90 68 -98 19 -21 30 -36 57 -74 14 -19 32 -43 40 -53 32 -39 53 -63 80 -93
15 -17 35 -44 43 -60 22 -41 82 -104 152 -158 77 -60 72 -57 148 -98 12 -7 24
-16 27 -19 8 -10 66 -38 127 -60 32 -12 76 -34 97 -48 21 -14 46 -30 55 -36
34 -21 212 -193 271 -262 14 -16 41 -47 60 -69 19 -22 56 -66 83 -99 26 -33
58 -73 72 -90 51 -62 133 -174 222 -303 20 -29 40 -49 44 -45 15 15 19 69 19
254 1 165 -3 262 -15 419 -2 25 -4 64 -4 86 l-1 41 -87 18 c-49 9 -101 19
-118 22 -16 3 -35 9 -41 14 -6 5 -14 6 -17 3 -3 -3 -12 -2 -19 2 -7 5 -19 9
-26 10 -11 2 -79 23 -132 42 -8 3 -17 6 -20 7 -92 29 -428 203 -438 227 -2 5
-8 6 -13 2 -5 -3 -9 -1 -9 4 0 5 -11 14 -25 20 -32 15 -214 149 -242 179 -13
13 -23 22 -23 18 0 -14 -271 249 -365 355 -45 50 -167 205 -205 260 -13 19
-28 37 -32 38 -4 2 -8 9 -8 15 0 16 -49 75 -50 61z"/>
<path d="M2188 3228 c-4 -96 2 -156 20 -201 7 -16 12 -32 12 -36 0 -12 47 -98
82 -150 17 -25 71 -85 119 -132 48 -48 100 -106 115 -130 16 -24 33 -47 38
-50 5 -4 5 -12 2 -18 -4 -6 -2 -11 3 -11 6 0 11 -9 11 -20 0 -12 7 -35 16 -51
9 -19 16 -61 17 -115 1 -46 6 -84 10 -84 5 0 5 -6 0 -12 -4 -7 -8 -36 -10 -65
-1 -29 -9 -69 -18 -89 -8 -20 -15 -45 -15 -55 0 -11 -3 -19 -7 -19 -5 0 -21
-24 -36 -54 -15 -29 -36 -62 -45 -72 -9 -11 -26 -32 -36 -49 -16 -25 -89 -118
-106 -135 -3 -3 -34 -39 -70 -80 -35 -41 -69 -78 -75 -82 -5 -4 -7 -8 -4 -8
20 0 -700 -717 -732 -728 -16 -6 -10 -101 12 -164 21 -63 61 -128 97 -161 20
-18 20 -18 26 1 6 18 66 56 74 47 3 -2 6 -48 7 -102 3 -111 8 -139 38 -203 28
-61 63 -98 117 -123 52 -24 116 -25 518 -13 285 9 277 8 277 29 0 8 3 18 5 21
3 3 5 40 4 83 -3 151 -62 220 -179 210 -33 -3 -71 -10 -85 -14 -42 -15 -126
-7 -149 14 -23 21 -34 88 -19 116 8 15 116 143 163 193 5 6 60 64 120 129 61
65 129 138 153 163 23 24 42 45 42 46 0 2 48 52 108 113 59 60 163 169 232
241 69 72 128 132 132 132 11 0 48 -76 50 -105 1 -14 7 -25 12 -25 5 0 6 -3 3
-7 -4 -3 -2 -12 3 -19 6 -6 13 -23 15 -35 3 -13 11 -46 19 -74 8 -27 18 -63
22 -80 9 -38 11 -44 14 -50 1 -3 4 -9 5 -15 1 -5 4 -12 5 -15 1 -3 4 -9 5 -15
1 -5 3 -11 4 -12 2 -2 4 -14 6 -28 3 -20 26 -112 61 -245 3 -11 8 -36 10 -55
3 -19 9 -46 14 -60 8 -23 33 -133 35 -155 1 -5 4 -20 9 -32 4 -12 9 -32 11
-45 4 -22 49 -215 62 -268 14 -57 21 -96 22 -122 1 -11 22 -29 54 -45 49 -26
59 -28 177 -27 69 1 132 3 140 6 8 3 29 8 45 12 64 16 190 60 193 68 2 4 8 8
13 8 6 0 35 12 66 26 54 26 55 27 48 61 -10 55 0 69 63 86 59 16 156 32 158
25 0 -1 8 3 17 11 10 7 17 10 17 6 0 -4 7 -2 15 5 9 7 18 10 21 7 9 -9 99 39
159 83 56 42 135 123 135 139 0 6 4 11 8 11 5 0 19 19 32 43 13 23 27 45 32
48 5 3 11 18 14 32 2 15 9 38 14 52 17 44 12 117 -10 153 -25 40 -62 55 -119
48 -44 -6 -141 -52 -141 -68 0 -4 -5 -8 -11 -8 -6 0 -36 -25 -67 -56 -94 -92
-144 -135 -202 -173 -60 -38 -120 -71 -131 -71 -4 0 -20 -5 -36 -12 -15 -6
-31 -12 -35 -13 -5 -2 -10 -4 -13 -5 -27 -14 -205 -32 -266 -28 -65 5 -69 4
-71 -16 -2 -40 -1 -74 5 -98 6 -22 1 -26 -68 -51 -41 -16 -75 -32 -75 -38 0
-5 -6 -9 -14 -9 -7 0 -19 -7 -26 -15 -18 -22 -26 -11 -34 42 -8 52 -8 53 -25
133 -6 30 -13 69 -16 85 -7 49 -15 89 -21 105 -4 8 -8 26 -10 40 -2 14 -12 61
-23 105 -12 44 -21 85 -21 92 0 6 -5 24 -11 40 -7 15 -13 38 -15 51 -1 13 -12
56 -24 95 -50 168 -92 303 -100 322 -5 11 -20 52 -34 90 -14 39 -31 84 -37
100 -7 17 -13 32 -14 35 -11 39 -130 287 -152 317 -13 17 -23 38 -23 47 0 8
-4 17 -9 21 -6 3 -16 18 -24 33 -23 43 -41 74 -71 122 -16 25 -41 65 -57 90
-15 25 -35 52 -44 61 -8 9 -15 19 -15 23 0 4 -11 22 -23 39 -150 204 -216 286
-303 376 -56 58 -135 142 -175 185 -41 44 -94 101 -119 126 -25 25 -51 57 -59
70 -18 31 -42 121 -35 132 3 4 0 8 -5 8 -6 0 -12 -15 -13 -32z"/>
</g>
</svg>
