<?xml version="1.0" encoding="UTF-8" standalone="no"?>
<!DOCTYPE svg PUBLIC "-//W3C//DTD SVG 1.1//EN" "http://www.w3.org/Graphics/SVG/1.1/DTD/svg11.dtd">
<svg width="100%" height="100%" viewBox="0 0 600 100" version="1.1" xmlns="http://www.w3.org/2000/svg" xmlns:xlink="http://www.w3.org/1999/xlink" xml:space="preserve" style="fill-rule:evenodd;clip-rule:evenodd;stroke-linejoin:round;stroke-miterlimit:1.41421;">
    <path d="M532.2,67.973C531.65,68.157 528.912,68.984 526.119,69.793C518.918,71.869 515.464,73.246 512.598,75.138C510.467,76.554 509.604,77.472 508.759,79.272C507.086,82.8 506.499,86.069 506.352,92.628L506.242,97L594.534,97L594.424,92.628C594.277,86.033 593.689,82.781 592.017,79.272C591.172,77.472 590.308,76.553 588.177,75.138C585.256,73.191 581.765,71.831 573.627,69.481C570.486,68.562 567.785,67.754 567.619,67.698C567.344,67.588 567.288,67.662 567.288,68.066C567.288,69.094 566.37,73.1 565.654,75.157C563.853,80.374 561.336,84.526 557.663,88.329C555.054,91.029 551.049,93.859 550.13,93.62C549.212,93.399 545.684,90.828 543.829,89.045C539.824,85.188 536.83,80.356 534.974,74.771C534.386,72.989 533.486,68.966 533.486,68.084C533.487,67.533 533.523,67.533 532.2,67.973ZM171.185,97L128.392,97C124.439,97 121.274,95.781 118.895,93.353C116.516,90.925 115.317,87.607 115.317,83.409C115.317,81.552 115.374,79.743 115.489,77.982C115.604,76.212 115.835,74.307 116.17,72.265C116.516,70.224 116.947,68.319 117.465,66.568C117.993,64.817 118.693,63.115 119.576,61.451C120.458,59.787 121.466,58.375 122.617,57.204C123.758,56.034 125.159,55.095 126.799,54.399C128.44,53.702 130.262,53.345 132.258,53.345C132.584,53.345 133.284,53.722 134.368,54.476C135.442,55.231 136.641,56.072 137.946,57.001C139.251,57.93 140.997,58.771 143.184,59.526C145.371,60.28 147.577,60.658 149.793,60.658C152.009,60.658 154.215,60.28 156.403,59.526C158.59,58.771 160.336,57.93 161.64,57.001C162.945,56.072 164.134,55.231 165.218,54.476C166.293,53.722 167.003,53.345 167.329,53.345C169.324,53.345 171.137,53.693 172.787,54.399C174.437,55.095 175.828,56.034 176.97,57.204C178.111,58.375 179.118,59.787 180.011,61.451C180.903,63.115 181.593,64.817 182.121,66.568C182.639,68.319 183.071,70.215 183.416,72.265C183.761,74.307 183.992,76.212 184.097,77.982C184.193,79.743 184.251,81.552 184.26,83.409C184.26,87.607 183.071,90.916 180.682,93.353C178.303,95.781 175.128,97 171.185,97ZM249.906,3.187C224.041,3.187 203,24.228 203,50.094C203,75.959 224.041,97 249.906,97C275.772,97 296.813,75.959 296.813,50.094C296.813,24.228 275.772,3.187 249.906,3.187ZM338.044,85.299L337.842,86.16C336.706,90.65 332.876,94.718 328.404,96.203C326.298,96.918 324.098,97.156 322.082,96.9C318.583,96.461 315.613,94.976 313.231,92.483C311.545,90.724 310.518,89.038 309.84,86.949L309.327,85.336L308.448,85.244C306.414,84.988 304.636,83.687 303.756,81.836C303.334,80.938 303.28,80.589 303.298,78.976C303.298,77.968 303.408,76.649 303.536,76.044C305.644,65.837 315.283,56.856 327.526,53.705L329.816,53.119L330.787,51.432C331.85,49.581 333.426,47.254 334.654,45.751C335.093,45.201 335.442,44.707 335.442,44.633C335.442,44.578 333.994,43.076 332.234,41.316L329.028,38.11L327.433,39.667C326.535,40.528 324.006,43.003 321.788,45.183C317.206,49.654 316.73,49.985 314.641,50.003C313.065,50.022 312.24,49.746 311.086,48.83C309.767,47.785 309.144,46.41 309.144,44.615C309.163,42.379 309.327,42.16 315.74,35.91L321.348,30.43L317.719,26.801C315.722,24.804 314.036,23.172 313.98,23.172C313.908,23.172 312.423,24.456 310.682,26.032C306.724,29.587 305.899,30.027 304.36,29.294C303.223,28.743 303.187,28.542 303.187,22.641C303.187,19.141 303.261,17.179 303.389,16.905C303.701,16.245 317.72,3.691 318.417,3.435C320.03,2.867 320.579,3.124 323.309,5.817C326.15,8.603 326.645,9.263 326.645,10.198C326.645,11.48 326.242,12.011 323.365,14.632C321.844,16.025 320.597,17.217 320.597,17.271C320.597,17.345 322.156,18.976 324.08,20.882L327.562,24.364L329.963,21.978C333.353,18.606 333.572,18.111 333.793,13.181C333.939,9.572 334.196,8.545 335.259,7.079C335.918,6.163 337.715,4.77 339.016,4.183C340.904,3.304 342.498,3.12 345.76,3.34C348.912,3.56 349.554,3.762 349.554,4.568C349.554,5.119 349.151,5.43 346.127,7.171C343.304,8.802 341.966,9.938 341.783,10.91C341.637,11.77 342.058,13.347 343.03,15.363C343.965,17.269 344.881,18.442 345.907,18.955C347.336,19.688 348.032,19.432 352.119,16.775C354.539,15.199 355.107,14.942 355.583,15.235C356.151,15.602 356.004,16.298 354.886,18.516C353.586,21.082 351.129,24.435 349.847,25.388C348.582,26.341 347.775,26.506 344.367,26.543C341.966,26.561 341.269,26.635 340.756,26.891C340.39,27.057 339.015,28.302 337.677,29.64L335.258,32.059L338.612,35.395L341.948,38.73L343.414,37.796C349.425,34.002 356.151,32.298 363.94,32.591C384.685,33.361 394.233,41.883 396.377,61.602C396.762,65.249 397.056,72.617 396.982,77.051C396.928,80.662 396.909,80.845 396.451,81.835C395.571,83.704 393.776,84.987 391.76,85.243L390.862,85.335L390.367,86.93C389.67,89.128 388.626,90.796 386.775,92.647C384.264,95.14 381.607,96.46 378.106,96.899C375.156,97.266 371.747,96.532 369.071,94.975C367.422,94.003 364.875,91.456 363.885,89.807C363.482,89.11 362.913,87.809 362.621,86.93L362.107,85.299L338.044,85.299ZM434.657,70.577C432.01,70.577 431.08,68.928 432.259,66.329C432.518,65.758 432.73,65.163 432.73,65.007C432.73,63.612 434.899,62.274 437.182,62.261C439.157,62.249 439.075,62.329 439.982,59.549C440.294,58.595 440.706,57.447 440.897,56.999C441.089,56.551 441.406,55.756 441.602,55.233C443.402,50.419 444.151,49.566 447.598,48.401C450.811,47.316 453.14,46.977 458.541,46.808C476.805,46.238 484.966,47.805 486.141,52.105C486.217,52.386 486.503,53.151 486.775,53.806C487.562,55.699 487.625,55.858 488.278,57.612C488.619,58.528 489.039,59.599 489.211,59.992C489.382,60.385 489.599,61.054 489.692,61.479L489.862,62.251L491.62,62.251C494.546,62.251 495.623,63.081 496.703,66.168C497.773,69.228 497.083,70.577 494.449,70.577L492.908,70.577L493.064,71.231C493.151,71.591 493.357,72.155 493.523,72.485C494.202,73.837 494.344,76.06 494.344,85.355C494.344,97.945 494.856,96.983 488.157,96.983L483.487,96.983L482.956,96.373C482.177,95.477 481.974,94.763 481.974,92.923L481.974,91.274L447.004,91.274L447.004,93.243C447.004,95.236 446.762,95.94 445.825,96.678C445.307,97.087 436.334,97.087 435.802,96.678C434.902,95.987 434.871,95.593 434.874,84.926C434.876,74.09 434.893,73.881 435.923,71.469L436.305,70.577L434.657,70.577ZM93.058,28.248C95.226,28.248 96.981,30.032 96.981,32.214L97,32.214L97,47.256L72.14,47.256C64.247,47.256 57.841,53.735 57.841,61.717C57.841,69.699 64.247,76.177 72.14,76.177C72.208,76.177 72.265,76.167 72.332,76.167L97,76.177L97,91.219C97,93.401 95.236,95.176 93.077,95.176L6.923,95.176C4.755,95.176 3,93.401 3,91.219L3,32.214C3,30.032 4.755,28.258 6.923,28.248L93.058,28.248ZM325.857,73.827C326.389,73.973 327.214,74.267 327.69,74.504C328.827,75.036 331.044,77.253 331.576,78.39C333.28,81.963 332.584,85.976 329.78,88.671C326.151,92.116 320.727,91.969 317.336,88.322C314.844,85.665 314.239,82.109 315.687,78.701C316.384,77.106 318.454,75.036 320.049,74.339C321.863,73.57 324.117,73.369 325.857,73.827ZM378.637,73.827C379.169,73.973 379.994,74.267 380.47,74.504C381.607,75.036 383.824,77.253 384.356,78.39C386.06,81.963 385.364,85.976 382.56,88.671C379.683,91.402 375.779,91.915 372.242,90.027C370.978,89.368 369.219,87.553 368.632,86.326C367.459,83.907 367.404,81.194 368.467,78.702C369.163,77.107 371.234,75.037 372.829,74.34C374.643,73.57 376.896,73.369 378.637,73.827ZM487.42,75.488C488.115,76.082 488.178,80.248 487.501,80.813C486.332,81.789 485.821,81.877 481.322,81.877C477,81.877 476.93,81.869 476.481,81.315C475.65,80.289 476.235,78.838 477.742,78.188C478.041,78.059 478.447,77.849 478.643,77.722C479.245,77.333 482.244,76.012 483.877,75.418C485.579,74.798 486.639,74.819 487.42,75.488ZM445.31,75.46C446.256,75.79 447.211,76.161 447.433,76.283C447.655,76.405 448.746,76.942 449.858,77.476C452.819,78.896 453.57,79.99 452.496,81.315C452.047,81.869 451.977,81.877 447.678,81.875C441.431,81.871 440.851,81.49 441.102,77.558C441.271,74.893 442.267,74.397 445.31,75.46ZM63.701,61.717C63.701,66.411 67.47,70.232 72.121,70.232C76.773,70.232 80.542,66.411 80.542,61.717C80.542,57.013 76.773,53.202 72.121,53.202C67.47,53.202 63.701,57.013 63.701,61.717ZM411.301,34.655L411.566,33.672C411.712,33.132 411.916,32.516 412.019,32.304C412.123,32.093 412.34,31.545 412.501,31.087C413.553,28.101 414.966,24.63 415.656,23.338C416.923,20.966 422.976,19.266 431.541,18.878C439.426,18.521 449.484,19.185 452.802,20.283C455.944,21.322 458.184,22.808 458.184,23.851C458.184,24.005 458.461,24.759 458.798,25.527C459.614,27.385 459.717,27.637 460.324,29.303C460.611,30.088 460.988,31.105 461.163,31.563C461.338,32.021 461.663,32.904 461.887,33.525L462.293,34.655L464.03,34.655C466.41,34.655 468.411,35.702 468.413,36.949C468.414,37.098 468.626,37.687 468.884,38.257C470.345,41.476 469.445,42.616 465.269,42.835C454.746,43.385 452.631,43.536 450.929,43.859C445.274,44.932 441.618,46.934 440.153,49.761C439.325,51.359 438.365,53.655 437.37,56.421L436.6,58.56L435.639,58.724C433.432,59.101 431.397,60.465 430.187,62.382L429.518,63.439L424.344,63.44L419.17,63.44L419.17,67.785L418.306,68.6L417.441,69.416L412.958,69.342L408.475,69.269L407.816,68.609L407.157,67.95L407.089,58.185C407.02,48.034 407.124,46.355 407.963,44.174C408.239,43.457 408.465,42.853 408.465,42.832C408.465,42.812 407.665,42.755 406.688,42.706C403.714,42.556 403.25,40.928 405.086,37.08C405.998,35.17 406.911,34.655 409.392,34.655L411.301,34.655ZM269.875,66.922C268.793,68.789 266.774,69.431 264.907,68.349L248.777,58.585C248.231,58.269 247.341,57.828 247.015,57.34C245.848,56.67 244.038,55.454 244.038,53.999L244.038,26.64C244.038,24.487 245.79,22.735 247.944,22.735C250.098,22.735 251.85,24.487 251.85,26.64L251.85,52.209L268.066,61.59C269.952,62.672 270.947,65.056 269.875,66.922ZM546.952,3.141C537.62,4.041 529.427,9.277 525.77,16.699C524.172,19.932 523.933,21.384 523.933,27.979L523.933,33.068L523.511,33.233C522.85,33.49 521.912,34.518 521.49,35.437C521.197,36.098 521.104,36.65 521.104,38.028C521.104,39.681 521.159,39.92 522.133,42.639C523.4,46.185 523.915,47.213 524.944,48.224C526.396,49.675 528.104,50.189 529.923,49.712C530.4,49.583 530.492,49.62 530.694,50.061C531.264,51.31 530.676,55.591 529.628,57.832C528.562,60.092 526.78,61.911 524.722,62.774L524.024,63.068L524.759,63.325C526.431,63.931 529.058,64.482 530.711,64.592C533.595,64.776 536.075,64.06 538.206,62.443L539.18,61.708L540.246,62.608C541.569,63.766 544.03,65.438 545.39,66.117C549.321,68.083 551.93,67.991 556.045,65.731C557.459,64.96 560.013,63.141 560.987,62.241L561.557,61.69L562.549,62.443C564.698,64.06 567.178,64.777 570.062,64.592C571.697,64.5 574.306,63.931 575.996,63.343L576.695,63.086L575.464,62.462C572.267,60.827 570.228,57.281 569.915,52.798C569.769,50.483 569.897,49.951 570.962,48.794C572.101,47.526 572.653,46.552 573.277,44.733C573.7,43.502 573.791,42.933 573.791,41.335C573.81,39.664 573.755,39.296 573.388,38.616C572.91,37.716 571.992,37.054 571.348,37.164C570.944,37.238 570.926,37.201 571.036,36.576C571.697,32.553 571.844,26.71 571.33,23.973C570.613,20.079 569.014,17.103 566.277,14.549C561.225,9.827 553.013,7.807 545.131,9.349C537.287,10.874 531.482,15.78 529.829,22.246C528.983,25.516 528.873,30.44 529.535,35.088C529.848,37.403 529.848,37.329 529.645,37.219C529.571,37.163 529.223,36.355 528.892,35.418C528.175,33.434 527.955,33.03 527.33,32.699L526.871,32.46L526.871,28.161C526.871,22.025 527.403,19.913 529.883,16.164C534.476,9.275 542.339,5.564 551.58,5.931C555.823,6.096 558.928,6.887 562.474,8.724C566.828,10.965 570.061,14.198 572.211,18.461C573.681,21.363 573.773,21.952 573.846,28.29C573.883,31.615 573.993,34.095 574.103,34.389C574.545,35.473 576.198,35.455 576.657,34.352C576.804,33.985 576.86,32.055 576.804,27.518L576.731,21.217L576.217,19.655C572.562,8.543 560.639,1.818 546.952,3.141ZM470.317,51.793C481.03,52.4 481.518,52.747 484.713,62.052C485.751,65.076 485.767,64.98 484.184,65.323C483.426,65.486 482.339,65.723 481.769,65.849C473.663,67.633 456.612,67.574 446.642,65.727C443.611,65.165 443.457,65.074 443.683,63.992C444.496,60.103 447.333,54.179 448.764,53.381C451.341,51.945 460.747,51.252 470.317,51.793ZM563.542,23.772C564.956,25.186 565.986,26.73 567.124,29.081C567.97,30.826 568.024,31.047 568.024,32.406C568.024,33.987 567.693,36.54 567.014,40.03C566.757,41.298 566.592,42.345 566.61,42.382C566.647,42.4 566.867,41.959 567.106,41.371C568.024,39.13 568.943,38.156 569.77,38.542C571.79,39.46 571.166,44.329 568.685,47.011C568.245,47.47 567.491,48.664 567.014,49.674C564.148,55.555 558.986,61.029 553.879,63.583C551.968,64.539 550.7,64.814 549.378,64.539C547.211,64.079 543.719,61.93 540.964,59.34C539.53,58.017 537.106,55.297 537.216,55.188C537.253,55.152 537.915,55.463 538.704,55.867C540.395,56.749 542.58,57.576 544.51,58.054C545.263,58.238 546.126,58.476 546.402,58.586C546.695,58.697 547.816,58.789 548.9,58.789C551.362,58.789 552.262,58.421 552.923,57.136C553.419,56.125 553.437,55.501 552.959,54.564C552.335,53.351 551.674,53.021 549.616,52.947C547.099,52.837 546.29,52.983 545.556,53.7C545.206,54.031 544.857,54.453 544.747,54.637C544.563,54.987 544.508,54.987 543.112,54.491C539.879,53.352 536.664,51.312 534.22,48.888C533.246,47.914 532.971,47.51 532.879,46.922C532.805,46.536 532.218,44.699 531.556,42.843C530.894,41.006 530.361,39.371 530.361,39.242C530.361,39.096 530.582,38.857 530.839,38.673C531.739,38.084 532.62,38.893 533.668,41.245C533.981,41.961 534.201,42.292 534.146,41.98C534.091,41.667 533.797,40.069 533.485,38.415C533.191,36.762 532.934,35.274 532.934,35.09C532.934,34.686 534.294,33.142 534.937,32.794C535.304,32.61 536.499,32.519 539.198,32.445C543.295,32.353 546.179,32.004 548.972,31.306C554.447,29.928 558.415,27.246 561.005,23.205C561.741,22.046 561.833,22.064 563.542,23.772ZM118.837,56.701L112.285,56.701C109.609,56.701 107.355,55.995 105.532,54.573C103.7,53.151 102.788,51.081 102.788,48.353C102.788,36.01 104.812,29.829 108.861,29.829C109.062,29.829 109.772,30.196 110.99,30.932C112.209,31.667 113.801,32.412 115.767,33.156C117.734,33.901 119.672,34.279 121.6,34.288C123.787,34.288 125.955,33.882 128.113,33.079C127.95,34.375 127.864,35.526 127.864,36.542C127.854,41.417 129.178,45.896 131.816,49.988C126.531,50.162 122.205,52.406 118.837,56.701ZM187.291,56.701L180.73,56.701C177.363,52.397 173.046,50.162 167.751,49.988C170.399,45.896 171.713,41.417 171.713,36.552C171.713,35.536 171.626,34.385 171.463,33.089C173.612,33.892 175.79,34.298 177.977,34.298C179.905,34.298 181.843,33.921 183.809,33.166C185.766,32.412 187.359,31.676 188.587,30.941C189.814,30.206 190.524,29.838 190.716,29.838C194.774,29.838 196.798,36.01 196.788,48.353C196.788,51.081 195.877,53.151 194.045,54.573C192.213,55.995 189.968,56.701 187.291,56.701ZM168.586,36.552C168.586,42.114 166.753,46.863 163.079,50.791C159.405,54.728 154.973,56.691 149.784,56.691C144.594,56.691 140.162,54.728 136.488,50.791C132.814,46.854 130.982,42.114 130.982,36.552C130.982,30.99 132.814,26.24 136.488,22.313C140.162,18.376 144.594,16.412 149.784,16.412C154.973,16.412 159.405,18.376 163.079,22.313C166.753,26.24 168.586,30.99 168.586,36.552ZM375.393,55.978C383.732,55.978 383.824,55.959 384.74,54.97C385.162,54.529 385.198,54.347 385.18,52.99C385.125,50.058 383.623,46.393 381.607,44.175C379.15,41.5 374.954,39.539 369.823,38.659C368.925,38.513 368.081,38.384 367.953,38.384C367.733,38.384 367.697,39.851 367.697,47.181L367.697,55.978L375.393,55.978ZM361.833,55.977L361.833,38.383L361.246,38.402C360.165,38.438 357.196,38.933 355.327,39.409C351.295,40.417 348.125,42.067 344.973,44.852C342.462,47.034 339.493,50.607 338.815,52.238C338.265,53.557 338.705,55.023 339.859,55.646C340.428,55.959 341.161,55.977 351.148,55.977L361.833,55.977ZM417.148,47.587C420.995,48.616 425.117,51.175 425.117,52.534C425.117,54.004 424.33,54.284 420.241,54.269C414.391,54.246 413.223,53.643 413.223,50.644C413.223,47.495 414.138,46.782 417.148,47.587ZM445.296,15.386L442.819,15.386C440.019,15.386 439.932,15.312 440.818,13.659C441.08,13.17 441.294,12.653 441.294,12.509C441.294,12.364 441.441,11.909 441.621,11.497C441.8,11.084 442.244,10.051 442.608,9.201C443.693,6.661 444.685,5.757 447.324,4.905C448.129,4.645 449.269,4.269 449.858,4.069C450.447,3.87 452.427,3.602 454.259,3.474C456.091,3.345 457.804,3.198 458.066,3.147C460.445,2.679 476.957,3.419 479.269,4.096C485.199,5.835 485.386,6.038 488.148,13.721C488.313,14.179 488.592,14.928 488.769,15.386C488.946,15.844 489.287,16.754 489.527,17.408L489.964,18.598L491.619,18.658C494.626,18.768 495.773,19.618 496.691,22.414C497.736,25.596 497.145,26.829 494.495,26.998C493.627,27.053 492.917,27.137 492.917,27.184C492.917,27.231 493.207,27.995 493.562,28.881L494.208,30.492L494.293,40.722C494.397,53.092 494.35,53.319 491.624,53.626L490.626,53.739L489.97,52.226C488.315,48.41 487.471,47.305 485.288,46.097C483.03,44.848 478.68,43.738 475.075,43.492L472.815,43.338L472.815,40.959C472.815,38.555 472.526,37.388 471.319,34.926C470.549,33.354 468.4,31.712 466.466,31.216C464.616,30.741 464.494,30.653 464.152,29.541C464.03,29.148 463.709,28.265 463.437,27.578C461.731,23.27 461.764,23.467 462.766,23.63C464.381,23.892 476.777,23.058 480.757,22.42C485.912,21.593 485.835,21.674 484.66,18.36C483.669,15.565 483.411,14.912 482.679,13.346C482.291,12.516 481.974,11.734 481.974,11.607C481.974,10.916 480.345,9.727 478.762,9.262C475.338,8.257 462.872,7.574 457.775,8.113C452.831,8.636 451.709,8.793 450.453,9.136C448.655,9.626 447.825,10.194 447.283,11.301C447.048,11.781 446.736,12.389 446.59,12.65C446.444,12.912 446.093,13.635 445.81,14.256L445.296,15.386ZM316.529,41.811C317.464,42.508 317.757,43.094 317.757,44.248C317.757,45.403 317.465,45.989 316.493,46.704C315.778,47.236 314.056,47.236 313.341,46.704C312.278,45.917 311.764,44.615 312.058,43.442C312.205,42.819 313.048,41.866 313.726,41.573C314.459,41.224 315.924,41.353 316.529,41.811ZM447.36,24.415C451.37,25.007 453.902,25.942 453.902,26.833C453.902,26.938 454.259,27.805 454.696,28.758C457.058,33.92 458.09,37.177 457.423,37.366C452.51,38.758 446.811,39.281 436.655,39.275C426.103,39.268 424.39,39.11 416.162,37.383C415.712,37.288 415.675,37.184 415.855,36.501C416.42,34.348 416.785,33.217 417.127,32.554C417.335,32.153 417.505,31.707 417.505,31.564C417.505,31.088 419.871,26.414 420.297,26.049C422.565,24.104 438.664,23.132 447.36,24.415ZM487.486,31.956C488.265,32.661 488.118,36.607 487.289,37.259C485.527,38.645 477.957,39.005 476.64,37.766C475.005,36.228 476.078,35.175 481.855,32.645C482.64,32.302 483.443,31.924 483.639,31.806C484.288,31.415 487.005,31.522 487.486,31.956ZM134.119,16.412C134.119,20.117 132.891,23.28 130.444,25.911C127.998,28.533 125.044,29.848 121.581,29.848C118.118,29.848 115.173,28.533 112.717,25.911C110.271,23.29 109.043,20.127 109.043,16.412C109.043,12.707 110.271,9.544 112.717,6.913C115.163,4.291 118.118,2.976 121.581,2.976C125.044,2.976 127.989,4.291 130.444,6.913C132.891,9.544 134.119,12.707 134.119,16.412ZM190.524,16.412C190.524,20.117 189.296,23.28 186.85,25.911C184.404,28.533 181.449,29.848 177.986,29.848C174.523,29.848 171.578,28.533 169.123,25.911C166.677,23.29 165.449,20.127 165.449,16.412C165.449,12.707 166.677,9.544 169.123,6.913C171.569,4.291 174.523,2.976 177.986,2.976C181.449,2.976 184.394,4.291 186.85,6.913C189.296,9.544 190.524,12.707 190.524,16.412ZM87.582,24.572L10.845,24.572L78.72,5.127C80.437,4.632 82.23,5.631 82.719,7.367L87.582,24.572Z" style="fill:rgb(76,175,80);"/>
</svg>
